*******************************************************

My.Sisters.Keeper.WP-Scr.XviD-IMAGiNE

*******************************************************



Ripper ...........: IMAGiNE IMDB Rating.......:7.3/10 3,530 votes

Video Codec.......: XVID Release Date......:11/01/09

Audio Codec.......:MP3 Theatre Date......:26 June 2009

Audio Bitrate.....:128 Runtime...........:1h 44 min

Subtitles.........:NIL Language..........:ENGLISH

Resolution...... 688 x 288 IMDb URL..........: 
http://www.imdb.com/title/tt1078588/





DETAILS:





Video

ID : 0

Format : MPEG-4 Visual

Format profile : Simple@L3

Format settings, BVOP : No

Format settings, QPel : No

Format settings, GMC : No warppoints

Format settings, Matrix : Default (H.263)

Codec ID : XVID

Codec ID/Hint : XviD

Duration : 1h 44mn

Bit rate : 769 Kbps

Width : 688 pixels

Height : 288 pixels

Display aspect ratio : 1.850

Frame rate : 29.970 fps

Resolution : 24 bits

Colorimetry : 4:2:0

Scan type : Progressive

Bits/(Pixel*Frame) : 0.129

Stream size : 575 MiB (79%)

Writing library : XviD 1.2.1 (UTC 2008-12-04)



Audio

ID : 1

Format : AC-3

Format/Info : Audio Coding 3

Codec ID : 2000

Duration : 1h 44mn

Bit rate mode : Constant

Bit rate : 192 Kbps

Channel(s) : 2 channels

Channel positions : L R

Sampling rate : 48.0 KHz

Resolution : 16 bits

Stream size : 144 MiB (20%)

Alignment : Aligned on interleaves

Interleave, duration : 33 ms (1.00 video frame)









NOTES:

This is our latest release, and our second Workprint/Screener.

This video was not the best to source work with, but it turned out very watchable IMO.

Sample is included for you to see. This had a timer across the bottom which we elected to crop off, but it was only a very small amount.

ScreenShots 
http://i191.photobucket.com/albums/z247/BALDy30/6yuLiK0O.png 
http://i191.photobucket.com/albums/z247/BALDy30/X7VT9PmY.png 
http://i191.photobucket.com/albums/z247/BALDy30/b5D0unIn.png 
http://i191.photobucket.com/albums/z247/BALDy30/dlfay1IM.png